<svg xmlns="http://www.w3.org/2000/svg" width="25.807" height="24.684" viewBox="0 0 25.807 24.684">
  <g id="Group_443" data-name="Group 443" transform="translate(0 0)">
    <g id="Group_444" data-name="Group 444" transform="translate(0 0)">
      <path id="Path_92" data-name="Path 92" d="M17.831,2,11.983-2.963a.106.106,0,0,0-.16,0L-.949,7.938A.142.142,0,0,0-1,8.033a.146.146,0,0,0,.026.106c.034.048,1.189,1.886,1.214,1.886a.118.118,0,0,0,.079-.03L2.638,8.029v13.51a.138.138,0,0,0,.13.145H8.96V12.646h5.882v9.038h6.081a.138.138,0,0,0,.131-.145V7.93l2.433,2.065a.115.115,0,0,0,.079.031c.024,0,1.18-1.838,1.214-1.887a.152.152,0,0,0,.026-.106.142.142,0,0,0-.05-.095L18.092,2.222Z" transform="translate(1 3)" fill="#0062ff"/>
    </g>
  </g>
</svg>
