<svg xmlns="http://www.w3.org/2000/svg" xmlns:xlink="http://www.w3.org/1999/xlink" width="24.058" height="28.545" viewBox="0 0 24.058 28.545">
  <defs>
    <clipPath id="clip-path">
      <rect id="Rectangle_155" data-name="Rectangle 155" width="23.351" height="28.545" fill="none" stroke="#e0e0e0" stroke-width="1"/>
    </clipPath>
  </defs>
  <g id="Group_3094" data-name="Group 3094" transform="translate(0 0)">
    <g id="Group_173" data-name="Group 173" transform="translate(0 0)">
      <g id="Group_172" data-name="Group 172" clip-path="url(#clip-path)">
        <path id="Path_60" data-name="Path 60" d="M36.831,92.276H32.868a.526.526,0,0,0-.5.686,2.621,2.621,0,0,0,4.97,0,.526.526,0,0,0-.5-.686" transform="translate(-23.286 -67.772)"/>
        <path id="Path_61" data-name="Path 61" d="M19.791,18.027l-2.691-2.2V9.473A7.255,7.255,0,0,0,11.572,2.45V1.684a1.684,1.684,0,1,0-3.368,0v.76A7.255,7.255,0,0,0,2.646,9.473V15.8L.2,18.078A1.088,1.088,0,0,0,1.21,19.76H18.82a1.137,1.137,0,0,0,.823-1.883" transform="translate(1.661 2.492)"/>
      </g>
    </g>
    <g id="Rectangle_287" data-name="Rectangle 287" transform="translate(13.058 3.089)" fill="#ff5800" stroke="#fff" stroke-width="2">
      <rect width="11" height="11" rx="5.5" stroke="none"/>
      <rect x="1" y="1" width="9" height="9" rx="4.5" fill="none"/>
    </g>
  </g>
</svg>
