<svg xmlns="http://www.w3.org/2000/svg" width="33" height="34.26" viewBox="0 0 33 34.26">
  <g id="Group_7542" data-name="Group 7542" transform="translate(0.331)">
    <g id="Group_7080" data-name="Group 7080" transform="translate(2.286)">
      <rect id="Rectangle_3412" data-name="Rectangle 3412" width="8" height="10" transform="translate(0 17)"/>
      <text id="_2" data-name="2" transform="translate(2 24)" fill="#fff" font-size="7" font-family="Avenir-Black, Avenir" font-weight="800"><tspan x="0" y="0">2</tspan></text>
      <rect id="Rectangle_3412-2" data-name="Rectangle 3412" width="10" height="13" transform="translate(9 14)"/>
      <text id="_1" data-name="1" transform="translate(12 23)" fill="#fff" font-size="7" font-family="Avenir-Black, Avenir" font-weight="800"><tspan x="0" y="0">1</tspan></text>
      <rect id="Rectangle_3412-3" data-name="Rectangle 3412" width="8" height="9" transform="translate(20 18)"/>
      <text id="_3" data-name="3" transform="translate(22 25)" fill="#fff" font-size="7" font-family="Avenir-Black, Avenir" font-weight="800"><tspan x="0" y="0">3</tspan></text>
      <rect id="Rectangle_3413" data-name="Rectangle 3413" width="24" height="3" transform="translate(2 29)"/>
      <path id="Polygon_17" data-name="Polygon 17" d="M6.07,2.353a1,1,0,0,1,1.86,0L8.619,4.1a1,1,0,0,0,.877.631l1.865.1a1,1,0,0,1,.569,1.782L10.518,7.728a1,1,0,0,0-.343,1.046l.475,1.743a1,1,0,0,1-1.5,1.108L7.534,10.6a1,1,0,0,0-1.068,0L4.849,11.626a1,1,0,0,1-1.5-1.108l.475-1.743a1,1,0,0,0-.343-1.046L2.07,6.608a1,1,0,0,1,.569-1.782l1.865-.1A1,1,0,0,0,5.381,4.1Z" transform="translate(6.5)"/>
    </g>
    <path id="Path_23372" data-name="Path 23372" d="M0,0H33V3H0Z" transform="translate(-0.331 31.26)"/>
  </g>
</svg>
